<mxfile host="Electron" agent="Mozilla/5.0 (Macintosh; Intel Mac OS X 10_15_7) AppleWebKit/537.36 (KHTML, like Gecko) draw.io/26.2.2 Chrome/134.0.6998.178 Electron/35.1.2 Safari/537.36" version="26.2.2">
  <diagram name="Page-1" id="g3wR1iNnqa6rvpcFGYqC">
    <mxGraphModel dx="1877" dy="1119" grid="0" gridSize="5" guides="1" tooltips="1" connect="1" arrows="1" fold="1" page="1" pageScale="1" pageWidth="1654" pageHeight="1169" math="1" shadow="0">
      <root>
        <mxCell id="0" />
        <mxCell id="1" parent="0" />
        <mxCell id="javhXIuIKmeeLSfoesNj-74" value="" style="ellipse;whiteSpace=wrap;html=1;strokeColor=default;align=center;verticalAlign=middle;fontFamily=Helvetica;fontSize=12;fontColor=default;fillColor=none;strokeWidth=3;" vertex="1" parent="1">
          <mxGeometry x="417" y="1392" width="300" height="80" as="geometry" />
        </mxCell>
        <mxCell id="javhXIuIKmeeLSfoesNj-92" value="" style="ellipse;whiteSpace=wrap;html=1;strokeColor=default;align=center;verticalAlign=middle;fontFamily=Helvetica;fontSize=12;fontColor=default;fillColor=none;strokeWidth=3;" vertex="1" parent="1">
          <mxGeometry x="529.5" y="1421" width="75" height="15" as="geometry" />
        </mxCell>
        <mxCell id="javhXIuIKmeeLSfoesNj-59" value="" style="ellipse;whiteSpace=wrap;html=1;strokeColor=default;strokeWidth=3;align=center;verticalAlign=middle;fontFamily=Helvetica;fontSize=12;fontColor=default;labelBackgroundColor=default;fillColor=none;dashed=1;" vertex="1" parent="1">
          <mxGeometry x="420" y="1117" width="288" height="80" as="geometry" />
        </mxCell>
        <mxCell id="javhXIuIKmeeLSfoesNj-68" value="" style="rounded=0;whiteSpace=wrap;html=1;strokeColor=none;strokeWidth=5;align=center;verticalAlign=middle;fontFamily=Helvetica;fontSize=12;fontColor=default;labelBackgroundColor=default;fillColor=default;" vertex="1" parent="1">
          <mxGeometry x="577" y="1109" width="23" height="15.5" as="geometry" />
        </mxCell>
        <mxCell id="javhXIuIKmeeLSfoesNj-67" value="" style="rounded=0;whiteSpace=wrap;html=1;strokeColor=none;strokeWidth=5;align=center;verticalAlign=middle;fontFamily=Helvetica;fontSize=12;fontColor=default;labelBackgroundColor=default;fillColor=default;" vertex="1" parent="1">
          <mxGeometry x="556" y="1109" width="23" height="15.5" as="geometry" />
        </mxCell>
        <mxCell id="javhXIuIKmeeLSfoesNj-65" value="" style="rounded=0;whiteSpace=wrap;html=1;strokeColor=none;strokeWidth=5;align=center;verticalAlign=middle;fontFamily=Helvetica;fontSize=12;fontColor=default;labelBackgroundColor=default;fillColor=default;" vertex="1" parent="1">
          <mxGeometry x="534" y="1110" width="22" height="16" as="geometry" />
        </mxCell>
        <mxCell id="javhXIuIKmeeLSfoesNj-15" value="" style="ellipse;whiteSpace=wrap;html=1;strokeColor=default;align=center;verticalAlign=middle;fontFamily=Helvetica;fontSize=12;fontColor=default;fillColor=none;strokeWidth=7;" vertex="1" parent="1">
          <mxGeometry x="368" y="1628" width="404" height="105" as="geometry" />
        </mxCell>
        <mxCell id="javhXIuIKmeeLSfoesNj-71" value="" style="rounded=0;whiteSpace=wrap;html=1;strokeColor=none;strokeWidth=5;align=center;verticalAlign=middle;fontFamily=Helvetica;fontSize=12;fontColor=default;labelBackgroundColor=default;fillColor=default;" vertex="1" parent="1">
          <mxGeometry x="371" y="1635" width="398" height="43" as="geometry" />
        </mxCell>
        <mxCell id="javhXIuIKmeeLSfoesNj-10" value="" style="ellipse;whiteSpace=wrap;html=1;strokeColor=default;align=center;verticalAlign=middle;fontFamily=Helvetica;fontSize=12;fontColor=default;fillColor=default;strokeWidth=7;" vertex="1" parent="1">
          <mxGeometry x="367" y="1540" width="405" height="119.5" as="geometry" />
        </mxCell>
        <mxCell id="javhXIuIKmeeLSfoesNj-13" value="" style="endArrow=none;html=1;rounded=0;strokeColor=default;strokeWidth=6;align=center;verticalAlign=middle;fontFamily=Helvetica;fontSize=12;fontColor=default;labelBackgroundColor=default;endSize=7;entryX=0;entryY=0.5;entryDx=0;entryDy=0;exitX=0;exitY=0.5;exitDx=0;exitDy=0;" edge="1" parent="1" source="javhXIuIKmeeLSfoesNj-15" target="javhXIuIKmeeLSfoesNj-10">
          <mxGeometry width="50" height="50" relative="1" as="geometry">
            <mxPoint x="341.47" y="1680" as="sourcePoint" />
            <mxPoint x="366.47" y="1660" as="targetPoint" />
          </mxGeometry>
        </mxCell>
        <mxCell id="javhXIuIKmeeLSfoesNj-14" value="" style="endArrow=none;html=1;rounded=0;strokeColor=default;strokeWidth=6;align=center;verticalAlign=middle;fontFamily=Helvetica;fontSize=12;fontColor=default;labelBackgroundColor=default;endSize=7;exitX=1;exitY=0.5;exitDx=0;exitDy=0;" edge="1" parent="1" source="javhXIuIKmeeLSfoesNj-15">
          <mxGeometry width="50" height="50" relative="1" as="geometry">
            <mxPoint x="772" y="1677" as="sourcePoint" />
            <mxPoint x="772" y="1597" as="targetPoint" />
          </mxGeometry>
        </mxCell>
        <mxCell id="javhXIuIKmeeLSfoesNj-16" value="" style="endArrow=none;html=1;rounded=0;strokeColor=default;strokeWidth=6;align=center;verticalAlign=middle;fontFamily=Helvetica;fontSize=12;fontColor=default;labelBackgroundColor=default;endSize=7;entryX=0;entryY=0.5;entryDx=0;entryDy=0;" edge="1" parent="1">
          <mxGeometry width="50" height="50" relative="1" as="geometry">
            <mxPoint x="536.47" y="1800" as="sourcePoint" />
            <mxPoint x="536.47" y="1735" as="targetPoint" />
          </mxGeometry>
        </mxCell>
        <mxCell id="javhXIuIKmeeLSfoesNj-18" value="" style="endArrow=none;html=1;rounded=0;strokeColor=default;strokeWidth=6;align=center;verticalAlign=middle;fontFamily=Helvetica;fontSize=12;fontColor=default;labelBackgroundColor=default;endSize=7;entryX=0;entryY=0.5;entryDx=0;entryDy=0;" edge="1" parent="1">
          <mxGeometry width="50" height="50" relative="1" as="geometry">
            <mxPoint x="586.47" y="1800" as="sourcePoint" />
            <mxPoint x="586.47" y="1735" as="targetPoint" />
          </mxGeometry>
        </mxCell>
        <mxCell id="javhXIuIKmeeLSfoesNj-19" value="" style="endArrow=none;html=1;rounded=0;strokeColor=default;strokeWidth=6;align=center;verticalAlign=middle;fontFamily=Helvetica;fontSize=12;fontColor=default;labelBackgroundColor=default;endSize=7;" edge="1" parent="1">
          <mxGeometry width="50" height="50" relative="1" as="geometry">
            <mxPoint x="613.47" y="1879" as="sourcePoint" />
            <mxPoint x="586.47" y="1800" as="targetPoint" />
          </mxGeometry>
        </mxCell>
        <mxCell id="javhXIuIKmeeLSfoesNj-20" value="" style="endArrow=none;html=1;rounded=0;strokeColor=default;strokeWidth=6;align=center;verticalAlign=middle;fontFamily=Helvetica;fontSize=12;fontColor=default;labelBackgroundColor=default;endSize=0;targetPerimeterSpacing=-1;startArrow=none;startFill=0;endFill=1;" edge="1" parent="1">
          <mxGeometry width="50" height="50" relative="1" as="geometry">
            <mxPoint x="509.47" y="1879" as="sourcePoint" />
            <mxPoint x="536.47" y="1800" as="targetPoint" />
          </mxGeometry>
        </mxCell>
        <mxCell id="javhXIuIKmeeLSfoesNj-21" value="" style="endArrow=none;html=1;rounded=0;strokeColor=default;strokeWidth=6;align=center;verticalAlign=middle;fontFamily=Helvetica;fontSize=12;fontColor=default;labelBackgroundColor=default;endSize=1;targetPerimeterSpacing=-1;startArrow=none;startFill=0;endFill=1;" edge="1" parent="1">
          <mxGeometry width="50" height="50" relative="1" as="geometry">
            <mxPoint x="506.47" y="1880" as="sourcePoint" />
            <mxPoint x="616.47" y="1880" as="targetPoint" />
          </mxGeometry>
        </mxCell>
        <mxCell id="javhXIuIKmeeLSfoesNj-22" value="" style="endArrow=none;html=1;rounded=0;strokeColor=default;strokeWidth=6;align=center;verticalAlign=middle;fontFamily=Helvetica;fontSize=12;fontColor=default;labelBackgroundColor=default;endSize=7;" edge="1" parent="1">
          <mxGeometry width="50" height="50" relative="1" as="geometry">
            <mxPoint x="536.47" y="1800" as="sourcePoint" />
            <mxPoint x="586.47" y="1800" as="targetPoint" />
          </mxGeometry>
        </mxCell>
        <mxCell id="javhXIuIKmeeLSfoesNj-23" value="" style="shape=flexArrow;endArrow=classic;startArrow=classic;html=1;rounded=0;strokeColor=default;strokeWidth=6;align=center;verticalAlign=middle;fontFamily=Helvetica;fontSize=12;fontColor=default;labelBackgroundColor=default;endSize=7;" edge="1" parent="1">
          <mxGeometry width="100" height="100" relative="1" as="geometry">
            <mxPoint x="459.47" y="1865" as="sourcePoint" />
            <mxPoint x="460.47" y="1741" as="targetPoint" />
          </mxGeometry>
        </mxCell>
        <mxCell id="javhXIuIKmeeLSfoesNj-25" value="" style="ellipse;whiteSpace=wrap;html=1;strokeColor=default;strokeWidth=5;align=center;verticalAlign=middle;fontFamily=Helvetica;fontSize=12;fontColor=default;labelBackgroundColor=default;fillColor=default;" vertex="1" parent="1">
          <mxGeometry x="512" y="1405" width="110" height="23" as="geometry" />
        </mxCell>
        <mxCell id="javhXIuIKmeeLSfoesNj-26" value="" style="endArrow=none;html=1;rounded=0;strokeColor=default;strokeWidth=6;align=center;verticalAlign=middle;fontFamily=Helvetica;fontSize=12;fontColor=default;labelBackgroundColor=default;endSize=5;entryX=0.012;entryY=0.571;entryDx=0;entryDy=0;entryPerimeter=0;" edge="1" parent="1" target="javhXIuIKmeeLSfoesNj-25">
          <mxGeometry width="50" height="50" relative="1" as="geometry">
            <mxPoint x="566" y="1454" as="sourcePoint" />
            <mxPoint x="518" y="1422" as="targetPoint" />
          </mxGeometry>
        </mxCell>
        <mxCell id="javhXIuIKmeeLSfoesNj-27" value="" style="endArrow=none;html=1;rounded=0;strokeColor=default;strokeWidth=6;align=center;verticalAlign=middle;fontFamily=Helvetica;fontSize=12;fontColor=default;labelBackgroundColor=default;endSize=5;exitX=0.992;exitY=0.577;exitDx=0;exitDy=0;exitPerimeter=0;" edge="1" parent="1" source="javhXIuIKmeeLSfoesNj-25">
          <mxGeometry width="50" height="50" relative="1" as="geometry">
            <mxPoint x="635.3799999999999" y="1437" as="sourcePoint" />
            <mxPoint x="563" y="1454" as="targetPoint" />
          </mxGeometry>
        </mxCell>
        <mxCell id="javhXIuIKmeeLSfoesNj-66" value="" style="rounded=0;whiteSpace=wrap;html=1;strokeColor=none;strokeWidth=5;align=center;verticalAlign=middle;fontFamily=Helvetica;fontSize=12;fontColor=default;labelBackgroundColor=default;fillColor=default;" vertex="1" parent="1">
          <mxGeometry x="533" y="1109" width="23" height="15.5" as="geometry" />
        </mxCell>
        <mxCell id="javhXIuIKmeeLSfoesNj-64" value="" style="rounded=0;whiteSpace=wrap;html=1;strokeColor=none;strokeWidth=5;align=center;verticalAlign=middle;fontFamily=Helvetica;fontSize=12;fontColor=default;labelBackgroundColor=default;fillColor=default;" vertex="1" parent="1">
          <mxGeometry x="613" y="1109.5" width="27" height="23" as="geometry" />
        </mxCell>
        <mxCell id="javhXIuIKmeeLSfoesNj-61" value="" style="rounded=0;whiteSpace=wrap;html=1;strokeColor=none;strokeWidth=5;align=center;verticalAlign=middle;fontFamily=Helvetica;fontSize=12;fontColor=default;labelBackgroundColor=default;fillColor=default;" vertex="1" parent="1">
          <mxGeometry x="490" y="1113" width="26" height="16" as="geometry" />
        </mxCell>
        <mxCell id="javhXIuIKmeeLSfoesNj-28" value="" style="ellipse;whiteSpace=wrap;html=1;strokeColor=default;strokeWidth=5;align=center;verticalAlign=middle;fontFamily=Helvetica;fontSize=12;fontColor=default;labelBackgroundColor=default;fillColor=none;" vertex="1" parent="1">
          <mxGeometry x="490" y="1061" width="44" height="180" as="geometry" />
        </mxCell>
        <mxCell id="javhXIuIKmeeLSfoesNj-29" value="" style="ellipse;whiteSpace=wrap;html=1;strokeColor=default;strokeWidth=5;align=center;verticalAlign=middle;fontFamily=Helvetica;fontSize=12;fontColor=default;labelBackgroundColor=default;fillColor=none;" vertex="1" parent="1">
          <mxGeometry x="515" y="1061" width="44" height="180" as="geometry" />
        </mxCell>
        <mxCell id="javhXIuIKmeeLSfoesNj-30" value="" style="endArrow=none;html=1;rounded=0;strokeColor=default;strokeWidth=5;align=center;verticalAlign=middle;fontFamily=Helvetica;fontSize=12;fontColor=default;labelBackgroundColor=default;endSize=1;exitX=0.5;exitY=0;exitDx=0;exitDy=0;entryX=0.5;entryY=0;entryDx=0;entryDy=0;" edge="1" parent="1" source="javhXIuIKmeeLSfoesNj-28" target="javhXIuIKmeeLSfoesNj-29">
          <mxGeometry width="50" height="50" relative="1" as="geometry">
            <mxPoint x="524" y="1142" as="sourcePoint" />
            <mxPoint x="574" y="1092" as="targetPoint" />
          </mxGeometry>
        </mxCell>
        <mxCell id="javhXIuIKmeeLSfoesNj-31" value="" style="endArrow=none;html=1;rounded=0;strokeColor=default;strokeWidth=5;align=center;verticalAlign=middle;fontFamily=Helvetica;fontSize=12;fontColor=default;labelBackgroundColor=default;endSize=1;exitX=0.5;exitY=0;exitDx=0;exitDy=0;entryX=0.5;entryY=0;entryDx=0;entryDy=0;" edge="1" parent="1">
          <mxGeometry width="50" height="50" relative="1" as="geometry">
            <mxPoint x="512" y="1241" as="sourcePoint" />
            <mxPoint x="537" y="1241" as="targetPoint" />
          </mxGeometry>
        </mxCell>
        <mxCell id="javhXIuIKmeeLSfoesNj-35" value="" style="endArrow=none;html=1;rounded=0;strokeColor=#FFFFFF;strokeWidth=5;align=center;verticalAlign=middle;fontFamily=Helvetica;fontSize=12;fontColor=default;labelBackgroundColor=default;endSize=1;" edge="1" parent="1">
          <mxGeometry width="50" height="50" relative="1" as="geometry">
            <mxPoint x="525" y="1236" as="sourcePoint" />
            <mxPoint x="512" y="1236" as="targetPoint" />
          </mxGeometry>
        </mxCell>
        <mxCell id="javhXIuIKmeeLSfoesNj-36" value="" style="endArrow=none;html=1;rounded=0;strokeColor=#FFFFFF;strokeWidth=5;align=center;verticalAlign=middle;fontFamily=Helvetica;fontSize=12;fontColor=default;labelBackgroundColor=default;endSize=1;" edge="1" parent="1">
          <mxGeometry width="50" height="50" relative="1" as="geometry">
            <mxPoint x="523" y="1235" as="sourcePoint" />
            <mxPoint x="514" y="1212" as="targetPoint" />
          </mxGeometry>
        </mxCell>
        <mxCell id="javhXIuIKmeeLSfoesNj-37" value="" style="endArrow=none;html=1;rounded=0;strokeColor=#FFFFFF;strokeWidth=5;align=center;verticalAlign=middle;fontFamily=Helvetica;fontSize=12;fontColor=default;labelBackgroundColor=default;endSize=1;" edge="1" parent="1">
          <mxGeometry width="50" height="50" relative="1" as="geometry">
            <mxPoint x="522" y="1233" as="sourcePoint" />
            <mxPoint x="509" y="1233" as="targetPoint" />
          </mxGeometry>
        </mxCell>
        <mxCell id="javhXIuIKmeeLSfoesNj-41" value="" style="group;flipV=1;" vertex="1" connectable="0" parent="1">
          <mxGeometry x="509" y="1066" width="16" height="24.31128404669289" as="geometry" />
        </mxCell>
        <mxCell id="javhXIuIKmeeLSfoesNj-38" value="" style="endArrow=none;html=1;rounded=0;strokeColor=#FFFFFF;strokeWidth=5;align=center;verticalAlign=middle;fontFamily=Helvetica;fontSize=12;fontColor=default;labelBackgroundColor=default;endSize=1;" edge="1" parent="javhXIuIKmeeLSfoesNj-41">
          <mxGeometry width="50" height="50" relative="1" as="geometry">
            <mxPoint x="16" as="sourcePoint" />
            <mxPoint x="3" as="targetPoint" />
          </mxGeometry>
        </mxCell>
        <mxCell id="javhXIuIKmeeLSfoesNj-39" value="" style="endArrow=none;html=1;rounded=0;strokeColor=#FFFFFF;strokeWidth=5;align=center;verticalAlign=middle;fontFamily=Helvetica;fontSize=12;fontColor=default;labelBackgroundColor=default;endSize=1;" edge="1" parent="javhXIuIKmeeLSfoesNj-41">
          <mxGeometry width="50" height="50" relative="1" as="geometry">
            <mxPoint x="14" y="1.3112840466928901" as="sourcePoint" />
            <mxPoint x="5" y="24.31128404669289" as="targetPoint" />
          </mxGeometry>
        </mxCell>
        <mxCell id="javhXIuIKmeeLSfoesNj-40" value="" style="endArrow=none;html=1;rounded=0;strokeColor=#FFFFFF;strokeWidth=5;align=center;verticalAlign=middle;fontFamily=Helvetica;fontSize=12;fontColor=default;labelBackgroundColor=default;endSize=1;" edge="1" parent="javhXIuIKmeeLSfoesNj-41">
          <mxGeometry width="50" height="50" relative="1" as="geometry">
            <mxPoint x="13" y="3" as="sourcePoint" />
            <mxPoint y="3" as="targetPoint" />
          </mxGeometry>
        </mxCell>
        <mxCell id="javhXIuIKmeeLSfoesNj-42" value="" style="ellipse;whiteSpace=wrap;html=1;strokeColor=default;strokeWidth=5;align=center;verticalAlign=middle;fontFamily=Helvetica;fontSize=12;fontColor=default;labelBackgroundColor=default;fillColor=none;" vertex="1" parent="1">
          <mxGeometry x="572" y="1063" width="44" height="180" as="geometry" />
        </mxCell>
        <mxCell id="javhXIuIKmeeLSfoesNj-43" value="" style="ellipse;whiteSpace=wrap;html=1;strokeColor=default;strokeWidth=5;align=center;verticalAlign=middle;fontFamily=Helvetica;fontSize=12;fontColor=default;labelBackgroundColor=default;fillColor=none;" vertex="1" parent="1">
          <mxGeometry x="597" y="1063" width="44" height="180" as="geometry" />
        </mxCell>
        <mxCell id="javhXIuIKmeeLSfoesNj-44" value="" style="endArrow=none;html=1;rounded=0;strokeColor=default;strokeWidth=5;align=center;verticalAlign=middle;fontFamily=Helvetica;fontSize=12;fontColor=default;labelBackgroundColor=default;endSize=1;exitX=0.5;exitY=0;exitDx=0;exitDy=0;entryX=0.5;entryY=0;entryDx=0;entryDy=0;" edge="1" parent="1" source="javhXIuIKmeeLSfoesNj-42" target="javhXIuIKmeeLSfoesNj-43">
          <mxGeometry width="50" height="50" relative="1" as="geometry">
            <mxPoint x="606" y="1144" as="sourcePoint" />
            <mxPoint x="656" y="1094" as="targetPoint" />
          </mxGeometry>
        </mxCell>
        <mxCell id="javhXIuIKmeeLSfoesNj-45" value="" style="endArrow=none;html=1;rounded=0;strokeColor=default;strokeWidth=5;align=center;verticalAlign=middle;fontFamily=Helvetica;fontSize=12;fontColor=default;labelBackgroundColor=default;endSize=1;exitX=0.5;exitY=0;exitDx=0;exitDy=0;entryX=0.5;entryY=0;entryDx=0;entryDy=0;" edge="1" parent="1">
          <mxGeometry width="50" height="50" relative="1" as="geometry">
            <mxPoint x="594" y="1243" as="sourcePoint" />
            <mxPoint x="619" y="1243" as="targetPoint" />
          </mxGeometry>
        </mxCell>
        <mxCell id="javhXIuIKmeeLSfoesNj-46" value="" style="endArrow=none;html=1;rounded=0;strokeColor=#FFFFFF;strokeWidth=5;align=center;verticalAlign=middle;fontFamily=Helvetica;fontSize=12;fontColor=default;labelBackgroundColor=default;endSize=1;" edge="1" parent="1">
          <mxGeometry width="50" height="50" relative="1" as="geometry">
            <mxPoint x="607" y="1238" as="sourcePoint" />
            <mxPoint x="594" y="1238" as="targetPoint" />
          </mxGeometry>
        </mxCell>
        <mxCell id="javhXIuIKmeeLSfoesNj-47" value="" style="endArrow=none;html=1;rounded=0;strokeColor=#FFFFFF;strokeWidth=5;align=center;verticalAlign=middle;fontFamily=Helvetica;fontSize=12;fontColor=default;labelBackgroundColor=default;endSize=1;" edge="1" parent="1">
          <mxGeometry width="50" height="50" relative="1" as="geometry">
            <mxPoint x="605" y="1237" as="sourcePoint" />
            <mxPoint x="596" y="1214" as="targetPoint" />
          </mxGeometry>
        </mxCell>
        <mxCell id="javhXIuIKmeeLSfoesNj-48" value="" style="endArrow=none;html=1;rounded=0;strokeColor=#FFFFFF;strokeWidth=5;align=center;verticalAlign=middle;fontFamily=Helvetica;fontSize=12;fontColor=default;labelBackgroundColor=default;endSize=1;" edge="1" parent="1">
          <mxGeometry width="50" height="50" relative="1" as="geometry">
            <mxPoint x="604" y="1235" as="sourcePoint" />
            <mxPoint x="591" y="1235" as="targetPoint" />
          </mxGeometry>
        </mxCell>
        <mxCell id="javhXIuIKmeeLSfoesNj-49" value="" style="group;flipV=1;" vertex="1" connectable="0" parent="1">
          <mxGeometry x="591" y="1068" width="16" height="24.31128404669289" as="geometry" />
        </mxCell>
        <mxCell id="javhXIuIKmeeLSfoesNj-50" value="" style="endArrow=none;html=1;rounded=0;strokeColor=#FFFFFF;strokeWidth=5;align=center;verticalAlign=middle;fontFamily=Helvetica;fontSize=12;fontColor=default;labelBackgroundColor=default;endSize=1;" edge="1" parent="javhXIuIKmeeLSfoesNj-49">
          <mxGeometry width="50" height="50" relative="1" as="geometry">
            <mxPoint x="16" as="sourcePoint" />
            <mxPoint x="3" as="targetPoint" />
          </mxGeometry>
        </mxCell>
        <mxCell id="javhXIuIKmeeLSfoesNj-51" value="" style="endArrow=none;html=1;rounded=0;strokeColor=#FFFFFF;strokeWidth=5;align=center;verticalAlign=middle;fontFamily=Helvetica;fontSize=12;fontColor=default;labelBackgroundColor=default;endSize=1;" edge="1" parent="javhXIuIKmeeLSfoesNj-49">
          <mxGeometry width="50" height="50" relative="1" as="geometry">
            <mxPoint x="14" y="1.3112840466928901" as="sourcePoint" />
            <mxPoint x="5" y="24.31128404669289" as="targetPoint" />
          </mxGeometry>
        </mxCell>
        <mxCell id="javhXIuIKmeeLSfoesNj-52" value="" style="endArrow=none;html=1;rounded=0;strokeColor=#FFFFFF;strokeWidth=5;align=center;verticalAlign=middle;fontFamily=Helvetica;fontSize=12;fontColor=default;labelBackgroundColor=default;endSize=1;" edge="1" parent="javhXIuIKmeeLSfoesNj-49">
          <mxGeometry width="50" height="50" relative="1" as="geometry">
            <mxPoint x="13" y="3" as="sourcePoint" />
            <mxPoint y="3" as="targetPoint" />
          </mxGeometry>
        </mxCell>
        <mxCell id="javhXIuIKmeeLSfoesNj-57" value="&lt;font style=&quot;font-size: 65px;&quot;&gt;$$\theta$$&lt;/font&gt;" style="text;html=1;align=center;verticalAlign=middle;whiteSpace=wrap;rounded=0;fontFamily=Helvetica;fontSize=12;fontColor=#FF3333;labelBackgroundColor=default;strokeColor=none;" vertex="1" parent="1">
          <mxGeometry x="948" y="1090.31" width="107" height="50" as="geometry" />
        </mxCell>
        <mxCell id="javhXIuIKmeeLSfoesNj-60" value="&lt;font style=&quot;font-size: 65px;&quot;&gt;$$C_{\mathrm{ext}}$$&lt;/font&gt;" style="text;html=1;align=center;verticalAlign=middle;whiteSpace=wrap;rounded=0;fontFamily=Helvetica;fontSize=12;fontColor=#FF3333;labelBackgroundColor=default;strokeColor=#FF3333;" vertex="1" parent="1">
          <mxGeometry x="294" y="1159" width="107" height="50" as="geometry" />
        </mxCell>
        <mxCell id="javhXIuIKmeeLSfoesNj-69" value="" style="endArrow=classic;html=1;rounded=0;strokeColor=default;strokeWidth=3;align=center;verticalAlign=middle;fontFamily=Helvetica;fontSize=12;fontColor=default;labelBackgroundColor=default;endSize=13;entryX=0.905;entryY=0.778;entryDx=0;entryDy=0;entryPerimeter=0;startSize=4;" edge="1" parent="1">
          <mxGeometry width="50" height="50" relative="1" as="geometry">
            <mxPoint x="656" y="1187.76" as="sourcePoint" />
            <mxPoint x="671.6399999999999" y="1184" as="targetPoint" />
          </mxGeometry>
        </mxCell>
        <mxCell id="javhXIuIKmeeLSfoesNj-70" value="" style="endArrow=classic;html=1;rounded=0;strokeColor=default;strokeWidth=3;align=center;verticalAlign=middle;fontFamily=Helvetica;fontSize=12;fontColor=default;labelBackgroundColor=default;endSize=13;entryX=0.905;entryY=0.778;entryDx=0;entryDy=0;entryPerimeter=0;startSize=4;" edge="1" parent="1">
          <mxGeometry width="50" height="50" relative="1" as="geometry">
            <mxPoint x="470.6399999999999" y="1187.76" as="sourcePoint" />
            <mxPoint x="455" y="1184" as="targetPoint" />
          </mxGeometry>
        </mxCell>
        <mxCell id="javhXIuIKmeeLSfoesNj-82" value="" style="group" vertex="1" connectable="0" parent="1">
          <mxGeometry x="563" y="787" width="9" height="633" as="geometry" />
        </mxCell>
        <mxCell id="javhXIuIKmeeLSfoesNj-24" value="" style="shape=flexArrow;endArrow=none;startArrow=none;html=1;rounded=0;strokeColor=default;strokeWidth=7;align=center;verticalAlign=middle;fontFamily=Helvetica;fontSize=12;fontColor=default;labelBackgroundColor=default;endSize=6;startFill=0;fillColor=none;" edge="1" parent="javhXIuIKmeeLSfoesNj-82">
          <mxGeometry width="100" height="100" relative="1" as="geometry">
            <mxPoint x="4" y="633" as="sourcePoint" />
            <mxPoint x="6" as="targetPoint" />
          </mxGeometry>
        </mxCell>
        <mxCell id="javhXIuIKmeeLSfoesNj-78" value="" style="rounded=0;whiteSpace=wrap;html=1;strokeColor=none;strokeWidth=5;align=center;verticalAlign=middle;fontFamily=Helvetica;fontSize=12;fontColor=default;labelBackgroundColor=default;fillColor=default;" vertex="1" parent="javhXIuIKmeeLSfoesNj-82">
          <mxGeometry y="483" width="9" height="20" as="geometry" />
        </mxCell>
        <mxCell id="javhXIuIKmeeLSfoesNj-3" value="" style="ellipse;whiteSpace=wrap;html=1;strokeColor=default;align=center;verticalAlign=middle;fontFamily=Helvetica;fontSize=12;fontColor=default;fillColor=none;strokeWidth=7;" vertex="1" parent="1">
          <mxGeometry x="417" y="1279" width="300" height="80" as="geometry" />
        </mxCell>
        <mxCell id="javhXIuIKmeeLSfoesNj-9" value="" style="ellipse;whiteSpace=wrap;html=1;strokeColor=default;align=center;verticalAlign=middle;fontFamily=Helvetica;fontSize=12;fontColor=default;fillColor=none;strokeWidth=7;" vertex="1" parent="1">
          <mxGeometry x="417" y="1559" width="300" height="80" as="geometry" />
        </mxCell>
        <mxCell id="javhXIuIKmeeLSfoesNj-5" value="" style="endArrow=none;html=1;rounded=0;fontFamily=Helvetica;fontSize=12;fontColor=default;entryX=1;entryY=0.5;entryDx=0;entryDy=0;exitX=1;exitY=0.5;exitDx=0;exitDy=0;strokeWidth=6;endSize=7;" edge="1" parent="1" source="javhXIuIKmeeLSfoesNj-9" target="javhXIuIKmeeLSfoesNj-3">
          <mxGeometry width="50" height="50" relative="1" as="geometry">
            <mxPoint x="687" y="1459" as="sourcePoint" />
            <mxPoint x="737" y="1409" as="targetPoint" />
          </mxGeometry>
        </mxCell>
        <mxCell id="javhXIuIKmeeLSfoesNj-6" value="" style="endArrow=none;html=1;rounded=0;fontFamily=Helvetica;fontSize=12;fontColor=default;entryX=0;entryY=0.5;entryDx=0;entryDy=0;exitX=0;exitY=0.5;exitDx=0;exitDy=0;strokeWidth=6;endSize=7;" edge="1" parent="1" source="javhXIuIKmeeLSfoesNj-9" target="javhXIuIKmeeLSfoesNj-3">
          <mxGeometry width="50" height="50" relative="1" as="geometry">
            <mxPoint x="417" y="1599" as="sourcePoint" />
            <mxPoint x="417" y="1319" as="targetPoint" />
          </mxGeometry>
        </mxCell>
        <mxCell id="javhXIuIKmeeLSfoesNj-54" value="" style="shape=parallelogram;perimeter=parallelogramPerimeter;whiteSpace=wrap;html=1;fixedSize=1;strokeColor=default;strokeWidth=5;align=center;verticalAlign=middle;fontFamily=Helvetica;fontSize=12;fontColor=default;labelBackgroundColor=default;fillColor=default;size=40.58833333333348;flipH=1;rotation=90;" vertex="1" parent="1">
          <mxGeometry x="521" y="962.13" width="110" height="54.25" as="geometry" />
        </mxCell>
        <mxCell id="javhXIuIKmeeLSfoesNj-55" value="" style="endArrow=none;html=1;rounded=0;strokeColor=#FF3333;strokeWidth=5;align=center;verticalAlign=middle;fontFamily=Helvetica;fontSize=12;fontColor=default;labelBackgroundColor=default;endSize=1;exitX=0.53;exitY=0.537;exitDx=0;exitDy=0;exitPerimeter=0;" edge="1" parent="1" source="javhXIuIKmeeLSfoesNj-54">
          <mxGeometry width="50" height="50" relative="1" as="geometry">
            <mxPoint x="608" y="983" as="sourcePoint" />
            <mxPoint x="1083" y="937" as="targetPoint" />
          </mxGeometry>
        </mxCell>
        <mxCell id="javhXIuIKmeeLSfoesNj-56" value="" style="endArrow=classicThin;html=1;rounded=0;strokeColor=#FF3333;strokeWidth=5;align=center;verticalAlign=middle;fontFamily=Helvetica;fontSize=12;fontColor=default;labelBackgroundColor=default;endSize=16;endFill=1;startSize=6;targetPerimeterSpacing=1;jumpSize=6;" edge="1" parent="1">
          <mxGeometry width="50" height="50" relative="1" as="geometry">
            <mxPoint x="575" y="986" as="sourcePoint" />
            <mxPoint x="972" y="1061" as="targetPoint" />
          </mxGeometry>
        </mxCell>
      </root>
    </mxGraphModel>
  </diagram>
</mxfile>
